# File created by Blade
# Date/Time:  Fri Jan 16 19:41:12 2015
# Frame Rate: 120.000 fps
#------------------------------------------------------
:FULLY-SPECIFIED
:DEGREES
1092
root 17.975939 35.416887 -20.346433 12.428676 0.107703 -1.521573
Spine -31.051968 -1.128945 4.970542
Head 30.025746 -1.609494 -3.410759
LeftShoulder -28.628871 -52.867870 53.855451
LeftArm 75.388841 -30.099388 -38.828124
LeftForeArm -22.656643 0.000000 152.591684
LeftHand 2.654911 0.000000 4.380992
LeftHandThumb1 -26.253704 0.000000 33.147579
RightShoulder -1.498476 -36.133160 -1.021103
RightArm -0.280144 -65.445275 75.752105
RightForeArm -5.201421 -0.000000 131.894427
RightHand 8.245349 -0.000000 48.587096
RightHandThumb1 -24.326973 -0.000000 -32.862282
LeftUpLeg 0.209237 5.918515 2.500347
LeftLeg -7.041089 -0.000000 0.000000
LeftFoot -23.033684 29.173310 -17.021527
LeftToeBase 23.363239 -0.000000 -0.000000
RightUpLeg -0.620489 -7.301570 0.324290
RightLeg -4.825351 -0.000000 0.000000
RightFoot -22.894347 -21.816113 20.469696
RightToeBase 22.500393 -0.000000 -0.000000
1093
root 17.975888 35.416807 -20.350530 12.423642 0.102781 -1.521863
Spine -31.023501 -1.126132 4.964812
Head 30.012634 -1.613564 -3.443320
LeftShoulder -28.586855 -52.852317 53.777495
LeftArm 75.410293 -30.165608 -38.852565
LeftForeArm -22.619667 -0.000000 152.569007
LeftHand 2.650988 0.000000 4.355711
LeftHandThumb1 -26.253704 0.000000 33.147579
RightShoulder -1.493037 -36.148759 -1.023887
RightArm -0.253539 -65.430219 75.706190
RightForeArm -5.189445 -0.000000 131.905101
RightHand 8.252192 -0.000000 48.574193
RightHandThumb1 -24.326973 -0.000000 -32.862282
LeftUpLeg 0.207167 5.916769 2.500151
LeftLeg -7.037338 -0.000000 0.000000
LeftFoot -23.036658 29.174993 -17.015128
LeftToeBase 23.350309 -0.000000 -0.000000
RightUpLeg -0.622785 -7.303656 0.324296
RightLeg -4.827063 -0.000000 0.000000
RightFoot -22.885656 -21.828742 20.442522
RightToeBase 22.486777 -0.000000 -0.000000
1094
root 17.975951 35.416751 -20.354086 12.412316 0.098399 -1.520829
Spine -30.988639 -1.106743 4.948388
Head 29.992604 -1.643418 -3.484348
LeftShoulder -28.578156 -52.867389 53.744894
LeftArm 75.398653 -30.205007 -38.920771
LeftForeArm -22.671566 -0.000000 152.562567
LeftHand 2.684015 0.000000 4.276744
LeftHandThumb1 -26.253704 0.000000 33.147579
RightShoulder -1.514311 -36.169905 -1.019736
RightArm -0.206871 -65.436311 75.649540
RightForeArm -5.178864 -0.000000 131.910218
RightHand 8.255239 -0.000000 48.543930
RightHandThumb1 -24.326973 -0.000000 -32.862282
LeftUpLeg 0.215088 5.913546 2.495263
LeftLeg -7.047535 -0.000000 0.000000
LeftFoot -23.024117 29.225093 -16.982711
LeftToeBase 23.377270 -0.000000 -0.000000
RightUpLeg -0.612484 -7.286169 0.319285
RightLeg -4.834646 -0.000000 0.000000
RightFoot -22.879891 -21.841667 20.428614
RightToeBase 22.496431 -0.000000 -0.000000
1095
root 17.974924 35.416501 -20.357844 12.408280 0.094576 -1.522690
Spine -30.958260 -1.096915 4.931459
Head 29.962373 -1.666307 -3.503057
LeftShoulder -28.581591 -52.849156 53.730256
LeftArm 75.383391 -30.265533 -38.981816
LeftForeArm -22.600208 -0.000000 152.592942
LeftHand 2.613332 -0.000000 4.264027
LeftHandThumb1 -26.253704 0.000000 33.147579
RightShoulder -1.526541 -36.163043 -1.008532
RightArm -0.237303 -65.436022 75.654745
RightForeArm -5.175853 -0.000000 131.916337
RightHand 8.254360 -0.000000 48.533630
RightHandThumb1 -24.326973 -0.000000 -32.862282
LeftUpLeg 0.217777 5.898449 2.502690
LeftLeg -7.048907 -0.000000 0.000000
LeftFoot -23.042294 29.202332 -17.006885
LeftToeBase 23.385144 -0.000000 -0.000000
RightUpLeg -0.609926 -7.271483 0.320802
RightLeg -4.844014 -0.000000 0.000000
RightFoot -22.886566 -21.842264 20.442041
RightToeBase 22.505462 -0.000000 -0.000000
1096
root 17.973790 35.416849 -20.362244 12.405773 0.096588 -1.524940
Spine -30.932905 -1.092916 4.919570
Head 29.943874 -1.660657 -3.522572
LeftShoulder -28.560639 -52.822228 53.677190
LeftArm 75.400855 -30.353693 -39.061919
LeftForeArm -22.659604 -0.000000 152.602441
LeftHand 2.582136 -0.000000 4.207517
LeftHandThumb1 -26.253704 0.000000 33.147579
RightShoulder -1.522249 -36.168306 -1.015828
RightArm -0.248743 -65.451209 75.660244
RightForeArm -5.159698 -0.000000 131.920109
RightHand 8.267276 -0.000000 48.521008
RightHandThumb1 -24.326973 -0.000000 -32.862282
LeftUpLeg 0.204197 5.905819 2.506776
LeftLeg -7.033944 -0.000000 0.000000
LeftFoot -23.041475 29.191314 -17.000900
LeftToeBase 23.382599 -0.000000 -0.000000
RightUpLeg -0.612242 -7.254854 0.325354
RightLeg -4.846983 -0.000000 0.000000
RightFoot -22.879329 -21.860571 20.433653
RightToeBase 22.503735 -0.000000 -0.000000
